<?xml version="1.0" standalone="no"?>
<!DOCTYPE svg PUBLIC "-//W3C//DTD SVG 20010904//EN"
 "http://www.w3.org/TR/2001/REC-SVG-20010904/DTD/svg10.dtd">
<svg version="1.0" xmlns="http://www.w3.org/2000/svg"
 width="375.000000pt" height="375.000000pt" viewBox="0 0 375.000000 375.000000"
 preserveAspectRatio="xMidYMid meet">
<metadata>
Created by potrace 1.16, written by Peter Selinger 2001-2019
</metadata>
<g transform="translate(0.000000,375.000000) scale(0.100000,-0.100000)"
fill="#AAA" stroke="none">
<path d="M1740 3220 c-206 -22 -461 -123 -652 -260 -106 -75 -266 -239 -335
-340 -242 -360 -298 -803 -152 -1217 127 -359 402 -650 751 -792 317 -130 691
-140 1008 -29 403 142 735 494 849 900 50 178 65 424 36 594 -48 277 -170 515
-372 725 -162 167 -351 288 -561 359 -159 53 -401 79 -572 60z m289 -250 c215
-27 434 -136 607 -302 113 -109 173 -190 240 -323 132 -265 150 -580 49 -868
-20 -56 -51 -150 -69 -208 -47 -154 -101 -220 -216 -265 -25 -10 -90 -45 -145
-77 -95 -57 -195 -107 -214 -107 -5 0 -14 20 -20 45 -11 45 -33 65 -70 65 -26
0 -37 21 -46 86 l-7 52 239 7 c131 3 245 8 254 11 25 7 96 82 115 122 21 45
22 128 1 168 -18 35 -86 99 -115 108 -22 7 -32 33 -32 89 0 48 -15 77 -40 77
-20 0 -28 -24 -32 -109 -3 -42 -5 -45 -44 -58 -50 -17 -82 -49 -126 -128 -22
-40 -40 -60 -52 -60 -77 0 -10 168 93 235 l51 33 0 77 0 77 69 6 c123 10 201
60 250 159 26 51 31 73 31 133 0 60 -5 82 -31 133 -33 67 -67 101 -138 137
-25 12 -67 41 -93 64 -25 23 -62 48 -81 56 -61 25 -72 64 -26 93 19 12 24 10
53 -24 23 -26 38 -36 49 -31 70 27 -96 239 -262 336 -38 23 -111 55 -162 73
-82 27 -108 31 -204 32 -134 1 -204 -16 -334 -80 -121 -60 -233 -167 -307
-294 -46 -78 -53 -85 -93 -97 -59 -17 -116 -57 -144 -102 -22 -36 -22 -37 -25
-553 -1 -288 -7 -518 -11 -518 -18 0 -65 66 -97 135 -67 147 -110 384 -101
555 23 393 263 752 627 935 204 102 383 133 609 105z m-171 -412 c7 -6 12 -35
12 -74 l0 -64 -85 0 c-71 0 -87 3 -92 17 -6 14 12 127 23 144 5 9 127 -11 142
-23z m243 -18 c4 -19 10 -54 14 -77 l6 -43 -96 0 -96 0 3 72 c3 72 3 73 33 79
17 4 52 6 80 6 48 -2 49 -3 56 -37z m337 -206 c30 -9 28 -28 -5 -45 -23 -11
-136 -15 -628 -17 l-600 -3 -27 -26 -28 -27 0 -471 0 -471 28 -27 28 -27 565
0 564 0 23 -33 22 -32 -397 -8 c-219 -4 -494 -5 -611 -1 -196 6 -215 8 -245
28 -57 39 -58 52 -58 571 0 511 1 530 54 569 24 17 48 21 175 27 179 8 1108 3
1140 -7z m-605 -248 c23 -11 22 -43 -2 -56 -30 -16 -333 -13 -355 3 -25 18 -6
54 31 60 43 8 306 1 326 -7z m46 -144 c54 -9 76 -36 47 -58 -16 -11 -62 -14
-225 -14 -113 0 -212 4 -219 9 -8 4 -12 19 -10 32 2 17 11 26 33 30 40 9 319
9 374 1z m-79 -347 l0 -35 -142 0 c-169 0 -188 4 -188 35 0 13 6 26 13 28 6 3
81 6 165 6 l152 1 0 -35z m150 -105 c5 -8 10 -25 10 -37 l0 -23 -182 1 c-101
1 -210 4 -243 8 -56 6 -60 8 -60 31 0 35 25 38 263 37 168 -2 204 -5 212 -17z
m565 -121 l35 -31 35 31 c39 34 57 38 74 17 10 -11 6 -21 -19 -49 -16 -19 -30
-38 -30 -43 0 -4 14 -23 32 -41 26 -27 29 -35 18 -48 -18 -22 -43 -19 -70 10
-28 30 -41 31 -65 5 -19 -21 -69 -27 -80 -10 -3 5 10 27 30 49 l36 40 -26 17
c-36 23 -50 51 -34 70 16 20 24 18 64 -17z m-1126 -296 l253 -6 -5 -42 c-10
-68 -24 -95 -49 -95 -13 0 -28 -4 -34 -8 -16 -11 -34 -48 -34 -72 0 -11 -7
-23 -15 -26 -31 -12 -312 156 -380 227 -36 38 -38 41 -15 35 14 -4 139 -10
279 -13z m734 -220 c65 -6 67 -7 67 -34 0 -18 -7 -32 -19 -39 -22 -11 -520
-13 -561 -1 -35 10 -41 57 -8 70 26 11 419 14 521 4z"/>
</g>
</svg>
