<?xml version="1.0" standalone="no"?>
<!DOCTYPE svg PUBLIC "-//W3C//DTD SVG 20010904//EN"
 "http://www.w3.org/TR/2001/REC-SVG-20010904/DTD/svg10.dtd">
<svg version="1.0" xmlns="http://www.w3.org/2000/svg"
 width="375.000000pt" height="375.000000pt" viewBox="0 0 375.000000 375.000000"
 preserveAspectRatio="xMidYMid meet">
<metadata>
Created by potrace 1.16, written by Peter Selinger 2001-2019
</metadata>
<g transform="translate(0.000000,375.000000) scale(0.100000,-0.100000)"
fill="#AAA" stroke="none">
<path d="M833 2987 l-52 -42 0 -1074 -1 -1073 49 -50 50 -50 973 5 c1036 5
1051 6 1099 54 18 18 22 38 30 159 4 77 8 561 9 1077 l0 938 -42 50 -41 49
-1011 0 -1011 -1 -52 -42z m1885 -157 c24 -4 48 -12 53 -17 20 -20 31 -587 25
-1203 -4 -338 -10 -632 -13 -652 -5 -36 -8 -38 -58 -48 -61 -13 -1666 -9
-1702 4 -17 6 -23 20 -30 65 -10 73 -10 1709 0 1783 6 37 14 59 25 64 46 21
1589 25 1700 4z"/>
<path d="M1200 2697 c-33 -16 -53 -60 -45 -96 8 -37 164 -197 210 -217 19 -8
63 -14 97 -14 131 -1 163 -42 173 -221 l8 -119 274 0 c364 0 392 7 393 101 0
25 5 50 12 57 19 19 139 15 168 -5 31 -22 116 -21 138 1 22 22 21 111 -1 134
-29 28 -99 21 -150 -16 -34 -24 -58 -32 -113 -37 -38 -4 -77 -13 -86 -19 -20
-15 -38 -58 -38 -90 0 -37 -30 -55 -95 -58 l-60 -3 -3 54 c-4 73 2 92 40 131
58 56 126 90 186 90 68 0 112 19 181 78 118 100 150 150 129 199 -7 15 -20 33
-28 40 -23 19 -92 15 -120 -7 -22 -17 -25 -26 -25 -88 0 -56 -4 -74 -20 -92
-42 -46 -130 -64 -173 -34 -30 20 -28 40 8 81 59 67 23 153 -65 153 -28 0 -61
-15 -82 -36 -20 -20 -15 -67 12 -118 14 -26 25 -61 25 -77 0 -81 -85 -151
-138 -113 -12 8 -22 21 -22 29 0 8 -10 20 -22 26 -32 16 -38 28 -38 71 0 26 7
44 22 58 17 15 22 31 22 70 0 60 -23 90 -69 90 -59 0 -91 -18 -103 -56 -12
-39 -8 -57 20 -93 18 -24 25 -96 10 -116 -4 -6 -19 -16 -34 -22 -17 -8 -28
-20 -28 -32 0 -58 -89 -40 -134 25 -35 53 -33 86 10 142 30 40 34 52 29 82 -8
46 -39 69 -91 70 -31 0 -48 -6 -68 -26 -36 -36 -36 -95 -1 -128 29 -27 32 -63
8 -82 -40 -30 -146 -7 -177 38 -11 15 -16 45 -16 91 0 59 -3 71 -25 92 -27 28
-66 32 -105 12z"/>
<path d="M2459 2012 c-14 -9 -65 -53 -113 -97 -101 -93 -137 -114 -189 -115
-20 0 -105 20 -188 45 -83 25 -165 45 -181 45 -19 0 -61 -19 -115 -52 -46 -29
-91 -57 -101 -63 -10 -5 -31 -19 -47 -31 -69 -48 -174 -94 -215 -94 -73 0
-127 -76 -99 -141 14 -35 62 -69 98 -69 14 0 56 25 102 60 90 70 213 147 311
197 l69 34 92 -26 c51 -15 137 -42 192 -61 55 -19 107 -34 115 -34 8 0 40 22
70 48 98 83 194 150 245 170 53 21 95 68 95 107 0 12 -10 37 -23 56 -18 27
-30 34 -57 36 -19 1 -47 -6 -61 -15z"/>
<path d="M2420 1330 l0 -270 95 0 95 0 0 270 0 270 -95 0 -95 0 0 -270z"/>
<path d="M1797 1524 c-4 -4 -7 -110 -7 -236 l0 -228 100 0 100 0 -2 233 -3
232 -90 3 c-50 1 -94 0 -98 -4z"/>
<path d="M2124 1443 c-21 -4 -22 -11 -29 -166 -10 -233 -21 -211 108 -215
l107 -3 0 196 0 195 -82 -1 c-46 -1 -93 -4 -104 -6z"/>
<path d="M1466 1342 c-5 -8 12 -263 18 -269 2 -2 46 -6 100 -10 l96 -6 0 146
0 147 -104 0 c-58 0 -107 -4 -110 -8z"/>
</g>
</svg>
